<?xml version="1.0" encoding="UTF-8"?>
<!DOCTYPE svg PUBLIC "-//W3C//DTD SVG 1.1//EN" "http://www.w3.org/Graphics/SVG/1.1/DTD/svg11.dtd">
<!-- Creator: CorelDRAW 2018 (64-Bit) -->
<svg xmlns="http://www.w3.org/2000/svg" xml:space="preserve" width="22px" height="18px" version="1.1" style="shape-rendering:geometricPrecision; text-rendering:geometricPrecision; image-rendering:optimizeQuality; fill-rule:evenodd; clip-rule:evenodd"
viewBox="0 0 5.57 4.65"
 xmlns:xlink="http://www.w3.org/1999/xlink">
 <defs>
  <style type="text/css">
   <![CDATA[
    .fil0 {fill:#B1987F}
   ]]>
  </style>
 </defs>
 <g id="Слой_x0020_1">
  <metadata id="CorelCorpID_0Corel-Layer"/>
  <path class="fil0" d="M5.43 1.84c0.01,0.01 0.03,0.02 0.05,0.02 0.02,0 0.03,0 0.04,-0.01 0.03,-0.01 0.05,-0.04 0.05,-0.08l0 -0.48c0,-0.03 -0.01,-0.05 -0.03,-0.07l-1.47 -1.16c-0.1,-0.08 -0.25,-0.08 -0.35,0l-0.55 0.44 0 -0.17c0,-0.05 -0.04,-0.09 -0.09,-0.09l-0.39 0c-0.05,0 -0.09,0.04 -0.09,0.09l0 0.61 -0.35 0.28c-0.02,0.02 -0.04,0.04 -0.04,0.07l0 0.48c0,0.04 0.02,0.07 0.06,0.08 0.03,0.02 0.06,0.01 0.09,-0.01l0.05 -0.03 0 0.88 -0.84 -0.67c-0.11,-0.08 -0.25,-0.08 -0.36,0l-1.18 0.93c-0.02,0.02 -0.03,0.05 -0.03,0.07l0 0.48c0,0.04 0.02,0.07 0.05,0.09 0.01,0 0.03,0 0.04,0 0.02,0 0.04,0 0.06,-0.01l0.04 -0.04 0 0.93 -0.1 0c-0.05,0 -0.09,0.04 -0.09,0.09 0,0.05 0.04,0.09 0.09,0.09l5.39 0c0.05,0 0.09,-0.04 0.09,-0.09 0,-0.05 -0.04,-0.09 -0.09,-0.09l-0.1 0 0 -2.66 0.05 0.03zm-1.78 -0.06l-0.57 0c-0.05,0 -0.09,0.04 -0.09,0.09l0 0.77c0,0.05 0.04,0.09 0.09,0.09l0.57 0c0.05,0 0.09,-0.04 0.09,-0.09l0 -0.77c0,-0.05 -0.04,-0.09 -0.09,-0.09l0 0zm-0.09 0.18l0 0.11 -0.39 0 0 -0.11 0.39 0zm-0.39 0.59l0 -0.3 0.39 0 0 0.3 -0.39 0zm0.96 0.18l0.58 0c0.05,0 0.09,-0.04 0.09,-0.09l0 -0.77c0,-0.05 -0.04,-0.09 -0.09,-0.09l-0.58 0c-0.05,0 -0.09,0.04 -0.09,0.09l0 0.77c0,0.05 0.04,0.09 0.09,0.09l0 0zm0.09 -0.18l0 -0.3 0.4 0 0 0.3 -0.4 0zm0.4 -0.59l0 0.11 -0.4 0 0 -0.11 0.4 0zm-0.49 2.12l0.58 0c0.05,0 0.09,-0.04 0.09,-0.09l0 -0.77c0,-0.05 -0.04,-0.09 -0.09,-0.09l-0.58 0c-0.05,0 -0.09,0.04 -0.09,0.09l0 0.77c0,0.05 0.04,0.09 0.09,0.09l0 0zm0.09 -0.18l0 -0.31 0.4 0 0 0.31 -0.4 0zm0.4 -0.59l0 0.1 -0.4 0 0 -0.1 0.4 0zm-1.84 -2.89l0.21 0 0 0.22 -0.21 0.16 0 -0.38 0 0zm-0.38 0.91l1.43 -1.13c0.04,-0.03 0.09,-0.03 0.13,0l1.43 1.13 0 0.26 -1.44 -1.14c-0.02,-0.01 -0.04,-0.02 -0.06,-0.02 -0.02,0 -0.04,0.01 -0.05,0.02l-1.44 1.14 0 -0.26 0 0zm-2.22 1.74l1.15 -0.91c0.03,-0.03 0.09,-0.03 0.12,0l0.96 0.76 0 0.25 -0.96 -0.76c-0.04,-0.03 -0.08,-0.03 -0.12,0l-1.15 0.91 0 -0.25zm0.19 0.33l1.02 -0.8 1.02 0.8 0 1.07 -0.4 0 0 -1.06c0,-0.05 -0.04,-0.09 -0.09,-0.09l-1.06 0c-0.05,0 -0.09,0.04 -0.09,0.09l0 1.06 -0.4 0 0 -1.07 0 0zm0.58 0.48l0.88 0 0 0.21 -0.88 0 0 -0.21zm0.88 -0.18l-0.88 0 0 -0.2 0.88 0 0 0.2zm-0.88 0.57l0.88 0 0 0.2 -0.88 0 0 -0.2zm2.61 -0.47c0,0 0,0 0,0 -0.03,0 -0.05,0.01 -0.07,0.03 -0.01,0.01 -0.02,0.04 -0.02,0.06 0,0.02 0.01,0.05 0.02,0.06 0.02,0.02 0.04,0.03 0.07,0.03 0,0 0,0 0,0l0 0.49 -0.39 0 0 -1.16 0.39 0 0 0.49zm1.64 0.67l-1.46 0 0 -1.25c0,-0.05 -0.04,-0.09 -0.09,-0.09l-0.57 0c-0.05,0 -0.09,0.04 -0.09,0.09l0 1.25 -0.4 0 0 -2.81 1.3 -1.03 1.31 1.03 0 2.81 0 0z"/>
 </g>
</svg>
