<?xml version="1.0" encoding="UTF-8"?>
<!DOCTYPE svg PUBLIC "-//W3C//DTD SVG 1.1//EN" "http://www.w3.org/Graphics/SVG/1.1/DTD/svg11.dtd">
<!-- Creator: CorelDRAW 2018 (64-Bit) -->
<svg xmlns="http://www.w3.org/2000/svg" xml:space="preserve" width="22px" height="22px" version="1.1" style="shape-rendering:geometricPrecision; text-rendering:geometricPrecision; image-rendering:optimizeQuality; fill-rule:evenodd; clip-rule:evenodd"
viewBox="0 0 8.37 8.37"
 xmlns:xlink="http://www.w3.org/1999/xlink">
 <defs>
  <style type="text/css">
   <![CDATA[
    .fil0 {fill:#B1987F}
   ]]>
  </style>
 </defs>
 <g id="Слой_x0020_1">
  <metadata id="CorelCorpID_0Corel-Layer"/>
  <path id="XMLID_1699_" class="fil0" d="M1.51 3.02c0.84,0 1.51,-0.67 1.51,-1.51 0,-0.83 -0.67,-1.51 -1.51,-1.51 -0.83,0 -1.51,0.68 -1.51,1.51 0,0.84 0.68,1.51 1.51,1.51zm1.17 0.85l0.01 0.01c0.03,0.03 0.06,0.04 0.1,0.04 0.03,0 0.07,-0.01 0.09,-0.04l0.01 -0.01 0.64 0 0 2.29 -1.11 0 0 -0.82c0,-0.27 -0.22,-0.49 -0.49,-0.49 -0.27,0 -0.49,0.22 -0.49,0.49l0 0.82 -1.11 0 0 -2.29 0.94 0c0.09,0 0.17,-0.07 0.17,-0.16 0,-0.09 -0.08,-0.16 -0.17,-0.16l-1.11 0c-0.09,0 -0.16,0.07 -0.16,0.16l0 2.61c0,0.09 0.07,0.17 0.16,0.17l1.28 0 0 0.31 -0.02 0c-0.28,0 -0.51,0.23 -0.51,0.51l0 0.08 -0.75 0c-0.09,0 -0.16,0.07 -0.16,0.16l0 0.65c0,0.09 0.07,0.17 0.16,0.17l8.04 0c0.09,0 0.17,-0.08 0.17,-0.17l0 -0.65 0 -0.65 0 -0.66 0 -0.65c0,-0.09 -0.08,-0.16 -0.17,-0.16l-1 0c-0.14,-0.2 -0.35,-0.34 -0.58,-0.39l-0.72 -0.16c0.29,-0.2 0.48,-0.53 0.48,-0.91l0 -0.4 0 -0.19 0 -0.04c0,-0.61 -0.49,-1.1 -1.1,-1.1 -0.61,0 -1.1,0.49 -1.1,1.1l0 0.04 0 0.19 0 0.4c0,0.38 0.19,0.71 0.49,0.91l-0.72 0.16c-0.03,0 -0.06,0.01 -0.09,0.02l0 -1.35c0,-0.09 -0.08,-0.16 -0.17,-0.16l-1.11 0c-0.09,0 -0.16,0.07 -0.16,0.16 0,0.09 0.07,0.16 0.16,0.16l0.1 0zm-0.87 -0.28c-0.03,0.03 -0.05,0.08 -0.05,0.12 0,0.04 0.02,0.09 0.05,0.12 0.03,0.03 0.08,0.04 0.12,0.04 0.04,0 0.08,-0.01 0.11,-0.04 0.03,-0.03 0.05,-0.08 0.05,-0.12 0,-0.04 -0.02,-0.09 -0.05,-0.12 -0.03,-0.03 -0.07,-0.04 -0.11,-0.04 -0.04,0 -0.09,0.01 -0.12,0.04zm5.4 3.8l-0.93 0 0 -0.33 1.76 0 0 0.33 -0.83 0zm0.83 -0.66l-1.76 0 0 -0.32 1.76 0 0 0.32zm0 -0.65l-1.76 0 0 -0.33 0.83 0c0,0 0,0 0,0 0,0 0,0 0,0l0.93 0 0 0.33zm-3.53 -2.74c0,-0.43 0.34,-0.78 0.77,-0.78 0.41,0 0.74,0.32 0.78,0.72l-0.38 -0.22c-0.07,-0.04 -0.16,-0.03 -0.21,0.03 -0.17,0.2 -0.41,0.31 -0.67,0.31l-0.29 0 0 -0.02 0 -0.04 0 0zm0 0.39l0.29 0c0.31,0 0.6,-0.12 0.82,-0.33l0.44 0.26 0 0.31c0,0.42 -0.35,0.77 -0.78,0.77 -0.43,0 -0.77,-0.35 -0.77,-0.77l0 -0.24 0 0zm1.03 1.31l-0.26 0.69 -0.26 -0.69c0.08,0.02 0.17,0.03 0.26,0.03 0.09,0 0.18,-0.01 0.26,-0.03zm-1.85 1.45c0.09,0 0.17,-0.08 0.17,-0.17l0 -0.9c0.05,-0.03 0.1,-0.05 0.16,-0.06l0.71 -0.16 0.4 1.05c0.02,0.07 0.08,0.11 0.15,0.11 0.07,0 0.13,-0.04 0.15,-0.11l0.4 -1.05 0.72 0.16c0.06,0.01 0.12,0.03 0.17,0.07l-0.61 0c-0.09,0 -0.16,0.07 -0.16,0.16l0 0.65 0 0.66 0 0.49 -2.43 0 0 -0.9 0.17 0 0 0zm-0.5 0l0 0.9 -0.25 0 0 -0.08c0,-0.28 -0.23,-0.51 -0.5,-0.51l-0.02 0 0 -0.31 0.77 0zm-1.43 -1.15c0,-0.09 0.08,-0.16 0.17,-0.16 0.09,0 0.16,0.07 0.16,0.16l0 1.46 -0.33 0 0 -1.46zm-0.52 1.97c0,-0.1 0.08,-0.18 0.18,-0.18l0.18 0 0.66 0 0.18 0c0.09,0 0.17,0.08 0.17,0.18l0 0.08 -1.37 0 0 -0.08zm6.8 0.73l-7.71 0 0 -0.33 7.71 0 0 0.33zm-6.4 -6.17c0.03,0.03 0.08,0.05 0.12,0.05 0.04,0 0.08,-0.02 0.11,-0.05 0.07,-0.06 0.07,-0.17 0,-0.23l-0.19 -0.2 0 -0.72c0,-0.09 -0.08,-0.16 -0.17,-0.16 -0.09,0 -0.16,0.07 -0.16,0.16l0 0.79c0,0.05 0.02,0.09 0.05,0.12l0.24 0.24zm-0.13 -1.54c0.66,0 1.19,0.53 1.19,1.18 0,0.66 -0.53,1.19 -1.19,1.19 -0.65,0 -1.18,-0.53 -1.18,-1.19 0,-0.65 0.53,-1.18 1.18,-1.18z"/>
 </g>
</svg>
