<?xml version="1.0" encoding="UTF-8"?>
<!DOCTYPE svg PUBLIC "-//W3C//DTD SVG 1.1//EN" "http://www.w3.org/Graphics/SVG/1.1/DTD/svg11.dtd">
<!-- Creator: CorelDRAW 2018 (64-Bit) -->
<svg xmlns="http://www.w3.org/2000/svg" xml:space="preserve" width="18px" height="18px" version="1.1" style="shape-rendering:geometricPrecision; text-rendering:geometricPrecision; image-rendering:optimizeQuality; fill-rule:evenodd; clip-rule:evenodd"
viewBox="0 0 2.55 2.55"
 xmlns:xlink="http://www.w3.org/1999/xlink">
 <defs>
  <style type="text/css">
   <![CDATA[
    .fil0 {fill:#B1987F}
   ]]>
  </style>
 </defs>
 <g id="Слой_x0020_1">
  <metadata id="CorelCorpID_0Corel-Layer"/>
  <path class="fil0" d="M2.27 1.66l0 0c0.15,-0.01 0.28,-0.14 0.28,-0.3 0,-0.02 -0.02,-0.04 -0.04,-0.04l-0.13 0c0,-0.6 -0.47,-1.08 -1.06,-1.11l0 -0.13 0.08 0 0 -0.08 -0.25 0 0 0.08 0.08 0 0 0.13c-0.59,0.03 -1.06,0.51 -1.06,1.11l-0.13 0c-0.02,0 -0.04,0.02 -0.04,0.04 0,0.16 0.13,0.3 0.3,0.3l0.3 0 -0.11 0.09c-0.01,-0.01 -0.01,-0.01 -0.02,-0.01l-0.47 0 0 0.09 0.42 0 0 0.63 -0.42 0 0 0.09 0.47 0c0.02,0 0.04,-0.02 0.04,-0.04l0 -0.13 1.01 0c0.07,0 0.14,-0.03 0.19,-0.07l0.51 -0.43c0.07,-0.05 0.09,-0.14 0.05,-0.22zm-1 -1.28c-0.23,0 -0.46,0.09 -0.64,0.26l0.06 0.06c0.16,-0.15 0.37,-0.23 0.58,-0.23l0 -0.09zm-0.69 0.32c-0.03,0.03 -0.06,0.07 -0.09,0.1l0.07 0.05c0.03,-0.03 0.05,-0.07 0.08,-0.1l-0.06 -0.05zm1.71 0.62l-2.04 0c0,-0.57 0.46,-1.02 1.02,-1.02 0.57,0 1.02,0.45 1.02,1.02zm-0.32 0.34l-0.41 0.29 -0.5 0c-0.02,0 -0.04,-0.02 -0.04,-0.04 0,-0.02 0.02,-0.04 0.04,-0.04l0.28 0c0.08,0 0.15,-0.07 0.15,-0.15 0,0 0,0 0,-0.01 0,-0.02 -0.01,-0.04 -0.02,-0.05l0.5 0zm-0.63 -0.09l0 0 -0.01 0 -0.55 0 0 0 -0.48 0c-0.11,0 -0.19,-0.07 -0.21,-0.17l0.12 0 2.13 0 0.12 0c-0.02,0.1 -0.11,0.17 -0.21,0.17l-0.91 0zm-1.13 0.55c-0.07,0 -0.13,0.06 -0.13,0.13 0,0.07 0.06,0.13 0.13,0.13 0.07,0 0.13,-0.06 0.13,-0.13 0,-0.07 -0.06,-0.13 -0.13,-0.13zm0 0.17c-0.02,0 -0.04,-0.02 -0.04,-0.04 0,-0.02 0.02,-0.04 0.04,-0.04 0.03,0 0.04,0.02 0.04,0.04 0,0.02 -0.01,0.04 -0.04,0.04zm1.96 -0.47l-0.51 0.42c-0.04,0.04 -0.09,0.05 -0.14,0.05l-1.01 0 0 -0.44 0.19 -0.16c0.02,-0.02 0.05,-0.03 0.08,-0.03l0 0 0.56 0 0 0c0.03,0 0.06,0.02 0.06,0.06 0,0.03 -0.03,0.06 -0.06,0.06l-0.28 0c-0.07,0 -0.13,0.06 -0.13,0.13 0,0.07 0.06,0.13 0.13,0.13l0.51 0c0.01,0 0.02,0 0.03,-0.01l0.48 -0.35c0.02,-0.01 0.04,-0.01 0.06,-0.01 0.02,0 0.04,0.01 0.05,0.03 0.01,0 0.01,0.01 0.01,0.01 0.02,0.03 0.01,0.08 -0.03,0.11z"/>
 </g>
</svg>
