<?xml version="1.0" encoding="UTF-8"?>
<!DOCTYPE svg PUBLIC "-//W3C//DTD SVG 1.1//EN" "http://www.w3.org/Graphics/SVG/1.1/DTD/svg11.dtd">
<!-- Creator: CorelDRAW 2018 (64-Bit) -->
<svg xmlns="http://www.w3.org/2000/svg" xml:space="preserve" width="39px" height="39px" version="1.1" style="shape-rendering:geometricPrecision; text-rendering:geometricPrecision; image-rendering:optimizeQuality; fill-rule:evenodd; clip-rule:evenodd"
viewBox="0 0 13.51 13.52"
 xmlns:xlink="http://www.w3.org/1999/xlink">
 <defs>
  <style type="text/css">
   <![CDATA[
    .fil1 {fill:#544838}
    .fil0 {fill:#C39B6D;fill-rule:nonzero}
   ]]>
  </style>
 </defs>
 <g id="Слой_x0020_1">
  <metadata id="CorelCorpID_0Corel-Layer"/>
  <g id="_1904154522896">
   <path class="fil0" d="M5.18 9.69c0.28,0 0.45,0.13 0.45,0.22l0.45 0c0,-0.32 -0.28,-0.58 -0.67,-0.65l0 -0.25 -0.45 0 0 0.25c-0.4,0.07 -0.68,0.33 -0.68,0.65 0,0.38 0.4,0.68 0.9,0.68 0.28,0 0.45,0.13 0.45,0.22 0,0.09 -0.17,0.23 -0.45,0.23 -0.27,0 -0.45,-0.14 -0.45,-0.23l-0.45 0c0,0.32 0.28,0.58 0.68,0.66l0 0.24 0.45 0 0 -0.24c0.39,-0.08 0.67,-0.34 0.67,-0.66 0,-0.38 -0.39,-0.67 -0.9,-0.67 -0.27,0 -0.45,-0.14 -0.45,-0.23 0,-0.09 0.18,-0.22 0.45,-0.22l0 0zm0.45 -9.01l-4.95 0 0 1.57 4.95 0 0 -1.57zm-0.45 1.12l-4.05 0 0 -0.67 4.05 0 0 0.67zm6.31 11.26l-9.46 0 0 -5.4 3.6 0c0.37,0 0.68,-0.3 0.68,-0.68l0 -5.63 2.47 0 0 2.7 2.71 0 0 3.16 0.45 0 0 -3.47 -2.84 -2.84 -2.79 0 0 -0.22c0,-0.38 -0.31,-0.68 -0.68,-0.68l-4.95 0c-0.38,0 -0.68,0.3 -0.68,0.68l0 6.3c0,0.38 0.3,0.68 0.68,0.68l0.9 0 0 5.86 10.36 0 0 -3.16 -0.45 0 0 2.7zm-2.25 -11.39l1.93 1.93 -1.93 0 0 -1.93zm-8.79 5.31l0 -6.3c0,-0.13 0.1,-0.23 0.23,-0.23l4.95 0c0.13,0 0.23,0.1 0.23,0.23l0 6.3c0,0.13 -0.1,0.23 -0.23,0.23l-4.95 0c-0.13,0 -0.23,-0.1 -0.23,-0.23zm12.86 0.21c-0.27,-0.26 -0.69,-0.26 -0.95,0l-3.87 3.86c-0.02,0.02 -0.03,0.04 -0.04,0.06l-0.55 1.18c-0.03,0.09 -0.02,0.19 0.05,0.26 0.07,0.06 0.17,0.08 0.25,0.04l1.18 -0.54c0.03,-0.01 0.05,-0.03 0.07,-0.05l3.86 -3.86c0.26,-0.26 0.26,-0.69 0,-0.95zm-4.15 4.47l-0.59 0.27 0.27 -0.59 2.88 -2.88 0.32 0.32 -2.88 2.88zm3.2 -3.2l-0.32 -0.32 0.16 -0.16 0.32 0.32 -0.16 0.16zm0.63 -0.64l-0.16 0.16 -0.32 -0.32 0.16 -0.15c0.09,-0.09 0.23,-0.09 0.32,0 0.09,0.08 0.09,0.23 0,0.31zm-7.81 0.29c-1.24,0 -2.25,1.01 -2.25,2.25 0,1.25 1.01,2.25 2.25,2.25 1.24,0 2.25,-1 2.25,-2.25 0,-1.24 -1.01,-2.25 -2.25,-2.25zm0 4.05c-0.99,0 -1.8,-0.8 -1.8,-1.8 0,-0.99 0.81,-1.8 1.8,-1.8 1,0 1.8,0.81 1.8,1.8 0,1 -0.8,1.8 -1.8,1.8z"/>
   <path class="fil1" d="M7.21 5.63l0.45 0 0 0.45 -0.45 0 0 -0.45zm0.9 0l2.7 0 0 0.45 -2.7 0 0 -0.45zm-0.9 -0.9l0.45 0 0 0.45 -0.45 0 0 -0.45zm0.9 0l2.7 0 0 0.45 -2.7 0 0 -0.45zm-0.9 1.8l0.45 0 0 0.45 -0.45 0 0 -0.45zm0.9 0l2.7 0 0 0.45 -2.7 0 0 -0.45zm-0.9 0.9l0.45 0 0 0.45 -0.45 0 0 -0.45zm0.9 0l2.7 0 0 0.45 -2.7 0 0 -0.45zm-3.15 -1.8l-0.46 0c-0.24,0 -0.45,0.2 -0.45,0.45l0 0.45c0,0.25 0.21,0.45 0.45,0.45l0.46 0c0.24,0 0.45,-0.2 0.45,-0.45l0 -0.45c0,-0.25 -0.21,-0.45 -0.45,-0.45l0 0zm-0.46 0.9l0 -0.45 0.46 0 0 0.45 -0.46 0zm-1.12 -0.9l-0.45 0c-0.25,0 -0.45,0.2 -0.45,0.45l0 0.45c0,0.25 0.2,0.45 0.45,0.45l0.45 0c0.25,0 0.45,-0.2 0.45,-0.45l0 -0.45c0,-0.25 -0.2,-0.45 -0.45,-0.45l0 0zm-0.45 0.9l0 -0.45 0.45 0 0 0.45 -0.45 0zm-1.13 -0.9l-0.45 0c-0.25,0 -0.45,0.2 -0.45,0.45l0 0.45c0,0.25 0.2,0.45 0.45,0.45l0.45 0c0.25,0 0.45,-0.2 0.45,-0.45l0 -0.45c0,-0.25 -0.2,-0.45 -0.45,-0.45l0 0zm-0.45 0.9l0 -0.45 0.45 0 0 0.45 -0.45 0zm0.45 -2.48l-0.45 0c-0.25,0 -0.45,0.21 -0.45,0.45l0 0.46c0,0.24 0.2,0.45 0.45,0.45l0.45 0c0.25,0 0.45,-0.21 0.45,-0.45l0 -0.46c0,-0.24 -0.2,-0.45 -0.45,-0.45l0 0zm-0.45 0.91l0 -0.46 0.45 0 0 0.46 -0.45 0zm2.03 -0.91l-0.45 0c-0.25,0 -0.45,0.21 -0.45,0.45l0 0.46c0,0.24 0.2,0.45 0.45,0.45l0.45 0c0.25,0 0.45,-0.21 0.45,-0.45l0 -0.46c0,-0.24 -0.2,-0.45 -0.45,-0.45l0 0zm-0.45 0.91l0 -0.46 0.45 0 0 0.46 -0.45 0zm2.03 -0.91l-0.46 0c-0.24,0 -0.45,0.21 -0.45,0.45l0 0.46c0,0.24 0.21,0.45 0.45,0.45l0.46 0c0.24,0 0.45,-0.21 0.45,-0.45l0 -0.46c0,-0.24 -0.21,-0.45 -0.45,-0.45l0 0zm-0.46 0.91l0 -0.46 0.46 0 0 0.46 -0.46 0zm0.46 -2.48l-0.46 0c-0.24,0 -0.45,0.2 -0.45,0.45l0 0.45c0,0.25 0.21,0.45 0.45,0.45l0.46 0c0.24,0 0.45,-0.2 0.45,-0.45l0 -0.45c0,-0.25 -0.21,-0.45 -0.45,-0.45l0 0zm-0.46 0.9l0 -0.45 0.46 0 0 0.45 -0.46 0zm-2.7 -0.9l-0.45 0c-0.25,0 -0.45,0.2 -0.45,0.45l0 0.45c0,0.25 0.2,0.45 0.45,0.45l0.45 0c0.25,0 0.45,-0.2 0.45,-0.45l0 -0.45c0,-0.25 -0.2,-0.45 -0.45,-0.45l0 0zm-0.45 0.9l0 -0.45 0.45 0 0 0.45 -0.45 0zm2.03 -0.9l-0.45 0c-0.25,0 -0.45,0.2 -0.45,0.45l0 0.45c0,0.25 0.2,0.45 0.45,0.45l0.45 0c0.25,0 0.45,-0.2 0.45,-0.45l0 -0.45c0,-0.25 -0.2,-0.45 -0.45,-0.45l0 0zm-0.45 0.9l0 -0.45 0.45 0 0 0.45 -0.45 0z"/>
  </g>
 </g>
</svg>
