<?xml version="1.0" encoding="UTF-8"?>
<!DOCTYPE svg PUBLIC "-//W3C//DTD SVG 1.1//EN" "http://www.w3.org/Graphics/SVG/1.1/DTD/svg11.dtd">
<!-- Creator: CorelDRAW 2018 (64-Bit) -->
<svg xmlns="http://www.w3.org/2000/svg" xml:space="preserve" width="38px" height="38px" version="1.1" style="shape-rendering:geometricPrecision; text-rendering:geometricPrecision; image-rendering:optimizeQuality; fill-rule:evenodd; clip-rule:evenodd"
viewBox="0 0 117.86 117.86"
 xmlns:xlink="http://www.w3.org/1999/xlink">
 <defs>
  <style type="text/css">
   <![CDATA[
    .fil1 {fill:#544838}
    .fil0 {fill:#B1987F}
   ]]>
  </style>
 </defs>
 <g id="Слой_x0020_1">
  <metadata id="CorelCorpID_0Corel-Layer"/>
  <g id="_1903023555712">
   <path class="fil0" d="M106.35 0l-94.84 0c-6.35,0 -11.51,5.16 -11.51,11.51l0 70.44c0,6.35 5.16,11.51 11.51,11.51l35.91 0 0 10.59 -2.3 0c-3.07,0 -5.96,1.2 -8.14,3.37 -2.17,2.18 -3.37,5.07 -3.37,8.14 0,1.27 1.03,2.3 2.3,2.3l46.04 0c1.27,0 2.3,-1.03 2.3,-2.3 0,-6.35 -5.16,-11.51 -11.51,-11.51l-2.3 0 0 -10.59 35.91 0c6.35,0 11.51,-5.16 11.51,-11.51l0 -70.44c0,-6.35 -5.16,-11.51 -11.51,-11.51l0 0zm-94.84 4.6l94.84 0c3.81,0 6.91,3.1 6.91,6.91l0 58.93 -10.59 0 0 -52.94c0,-1.28 -1.03,-2.31 -2.3,-2.31l-18.42 0c-1.27,0 -2.3,1.03 -2.3,2.31l0 52.94 -11.52 0c-0.03,-2.38 -0.09,-4.73 -0.19,-7 -0.4,-9.38 -1.32,-15.66 -1.8,-18.42 4.75,-3.5 6.05,-9.98 3.15,-15.02l-7.99 -13.82c-0.41,-0.71 -1.16,-1.15 -1.99,-1.15 -0.82,0 -1.58,0.44 -1.99,1.15l-7.98 13.82c-2.74,4.75 -1.77,10.9 2.53,14.53 -0.5,2.76 -1.5,9.26 -1.94,18.9 -0.1,2.3 -0.17,4.65 -0.2,7.01l-11.52 0 0 -34.53c0,-0.37 -0.08,-0.7 -0.22,-0.99 -0.01,-0.02 -0.02,-0.03 -0.02,-0.04l-9.21 -18.42c-0.39,-0.77 -1.19,-1.27 -2.06,-1.27 -0.87,0 -1.67,0.5 -2.06,1.27l-9.2 18.42c-0.01,0.01 -0.01,0.02 -0.02,0.04 -0.14,0.3 -0.23,0.64 -0.23,0.99l0 34.53 -10.59 0 0 -58.93c0,-3.81 3.1,-6.91 6.91,-6.91zm72.74 65.84l0 -50.64 13.82 0 0 4.6 -2.31 0c-1.27,0 -2.3,1.03 -2.3,2.3 0,1.27 1.03,2.3 2.3,2.3l2.31 0 0 6.91 -2.31 0c-1.27,0 -2.3,1.03 -2.3,2.3 0,1.28 1.03,2.3 2.3,2.3l2.31 0 0 6.91 -2.31 0c-1.27,0 -2.3,1.03 -2.3,2.3 0,1.27 1.03,2.31 2.3,2.31l2.31 0 0 9.2 -2.31 0c-1.27,0 -2.3,1.03 -2.3,2.31 0,1.27 1.03,2.3 2.3,2.3l2.31 0 0 4.6 -13.82 0zm-24.94 -23.18c0.84,0 1.67,-0.09 2.49,-0.28 0.42,2.74 1.05,7.59 1.42,14.25l-8.57 0c0.39,-6.66 1.05,-11.58 1.5,-14.41 1.02,0.29 2.09,0.44 3.16,0.44zm0 -4.6c-5.26,0 -8.65,-5.73 -5.99,-10.35l5.99 -10.37 5.99 10.36c2.65,4.61 -0.69,10.36 -5.99,10.36zm-4.87 23.18l8.99 0c0.04,1.51 0.08,3.05 0.09,4.6l-9.18 0c0.02,-1.54 0.05,-3.08 0.1,-4.6zm-25.44 4.6l0 -32.23 4.61 0 0 32.23 -4.61 0zm-9.2 0l0 -32.23 4.6 0 0 32.23 -4.6 0zm1.42 -36.83l5.48 -10.97 5.49 10.97 -10.97 0zm58.04 79.65l-40.65 0c0.33,-0.96 0.89,-1.84 1.63,-2.58 1.3,-1.31 3.03,-2.03 4.88,-2.03l27.62 0c3.01,0 5.56,1.93 6.52,4.61zm-13.42 -9.21l-13.81 0 0 -10.59 13.81 0 0 10.59zm40.51 -15.19l-94.84 0c-3.81,0 -6.91,-3.1 -6.91,-6.91l0 -6.91 108.66 0 0 6.91c0,3.81 -3.1,6.91 -6.91,6.91zm0 0z"/>
   <path class="fil1" d="M63.54 79.65l-13.82 0c-1.27,0 -2.3,1.03 -2.3,2.3 0,1.27 1.03,2.3 2.3,2.3l13.82 0c1.27,0 2.3,-1.03 2.3,-2.3 0,-1.27 -1.03,-2.3 -2.3,-2.3zm9.2 0c-1.27,0 -2.3,1.03 -2.3,2.3 0,1.27 1.03,2.3 2.3,2.3 1.27,0 2.3,-1.03 2.3,-2.3 0,-1.27 -1.03,-2.3 -2.3,-2.3z"/>
  </g>
 </g>
</svg>
