<?xml version="1.0" encoding="UTF-8"?>
<!DOCTYPE svg PUBLIC "-//W3C//DTD SVG 1.1//EN" "http://www.w3.org/Graphics/SVG/1.1/DTD/svg11.dtd">
<!-- Creator: CorelDRAW 2018 (64-Bit) -->
<svg xmlns="http://www.w3.org/2000/svg" xml:space="preserve" width="38px" height="38px" version="1.1" style="shape-rendering:geometricPrecision; text-rendering:geometricPrecision; image-rendering:optimizeQuality; fill-rule:evenodd; clip-rule:evenodd"
viewBox="0 0 102.81 102.81"
 xmlns:xlink="http://www.w3.org/1999/xlink">
 <defs>
  <style type="text/css">
   <![CDATA[
    .fil0 {fill:#544838}
    .fil1 {fill:#C39B6D;fill-rule:nonzero}
   ]]>
  </style>
 </defs>
 <g id="Слой_x0020_1">
  <metadata id="CorelCorpID_0Corel-Layer"/>
  <g id="_1903023582080">
   <path class="fil0" d="M71.41 47.08c0.79,-0.79 0.79,-2.06 0,-2.84 -0.78,-0.79 -2.05,-0.79 -2.84,0 -0.78,0.78 -0.78,2.05 0,2.84 0.79,0.78 2.06,0.78 2.84,0zm-40.93 -26.61l56.37 56.36c2.35,2.36 6.16,2.36 8.51,0l5.68 -5.68c2.35,-2.34 2.35,-6.17 0,-8.52l-56.36 -56.36c-0.22,-0.22 -0.49,-0.39 -0.79,-0.49l-17.03 -5.67c-0.72,-0.24 -1.52,-0.06 -2.06,0.48 -0.54,0.54 -0.72,1.33 -0.48,2.05l5.68 17.05c0.09,0.29 0.26,0.56 0.48,0.78l0 0zm67.72 45c0.79,0.79 0.79,2.06 0,2.84l-5.67 5.68c-0.79,0.79 -2.06,0.79 -2.84,0l-4.35 -4.35 8.51 -8.52 4.35 4.35zm-7.19 -7.19l-8.52 8.52 -2.84 -2.84 8.52 -8.52 2.84 2.84zm-46.42 -46.42l40.75 40.74 -8.53 8.52 -40.74 -40.74 8.52 -8.52zm-3.06 -2.63l-8.09 8.09 -4.05 -12.13 12.14 4.04zm21.36 32.17c0.79,0.78 2.06,0.78 2.84,0 0.79,-0.78 0.79,-2.06 0,-2.84l-8.52 -8.52c-0.78,-0.79 -2.05,-0.79 -2.84,0 -0.78,0.78 -0.78,2.05 0,2.84l8.52 8.52z"/>
   <path class="fil1" d="M2.01 102.81l98.79 0c0.81,0 1.54,-0.49 1.85,-1.24 0.31,-0.75 0.15,-1.61 -0.43,-2.19l-98.79 -98.79c-0.58,-0.57 -1.44,-0.74 -2.19,-0.43 -0.75,0.31 -1.24,1.04 -1.24,1.85l0 98.79c0,1.11 0.9,2.01 2.01,2.01zm18.69 -61.06c-0.58,-0.57 -1.44,-0.74 -2.19,-0.43 -0.75,0.31 -1.24,1.04 -1.24,1.85l0 40.37c0,1.1 0.9,2 2.01,2l40.36 0c0.81,0 1.54,-0.49 1.85,-1.24 0.32,-0.75 0.14,-1.61 -0.43,-2.19l-40.36 -40.36zm0.59 39.78l0 -33.51 33.5 33.51 -33.5 0zm-17.28 -74.67l16.16 16.15 -4.26 4.26c-0.79,0.78 -0.79,2.05 0,2.84 0.78,0.78 2.05,0.78 2.84,0l4.26 -4.26 8.52 8.52 -4.26 4.26c-0.79,0.78 -0.79,2.05 0,2.84 0.78,0.78 2.05,0.78 2.84,0l4.26 -4.26 8.52 8.52 -4.27 4.26c-0.78,0.78 -0.78,2.05 0,2.84 0.79,0.78 2.06,0.78 2.84,0l4.26 -4.26 8.52 8.52 -4.25 4.26c-0.79,0.78 -0.79,2.05 0,2.84 0.78,0.78 2.05,0.78 2.84,0l4.25 -4.26 8.52 8.51 -4.26 4.27c-0.78,0.78 -0.78,2.05 0,2.84 0.79,0.78 2.06,0.78 2.84,0l4.26 -4.27 8.52 8.53 -4.26 4.26c-0.78,0.78 -0.78,2.05 0,2.83 0.79,0.79 2.06,0.79 2.84,0l4.26 -4.25 16.15 16.15 -91.94 0 0 -91.94z"/>
  </g>
 </g>
</svg>
