<?xml version="1.0" encoding="UTF-8"?>
<!DOCTYPE svg PUBLIC "-//W3C//DTD SVG 1.1//EN" "http://www.w3.org/Graphics/SVG/1.1/DTD/svg11.dtd">
<!-- Creator: CorelDRAW 2018 (64-Bit) -->
<svg xmlns="http://www.w3.org/2000/svg" xml:space="preserve" width="38px" height="38px" version="1.1" style="shape-rendering:geometricPrecision; text-rendering:geometricPrecision; image-rendering:optimizeQuality; fill-rule:evenodd; clip-rule:evenodd"
viewBox="0 0 7.18 7.18"
 xmlns:xlink="http://www.w3.org/1999/xlink">
 <defs>
  <style type="text/css">
   <![CDATA[
    .fil0 {fill:url(#id0)}
   ]]>
  </style>
  <linearGradient id="id0" gradientUnits="userSpaceOnUse" x1="7.18" y1="3.59" x2="0" y2="3.59">
   <stop offset="0" style="stop-opacity:1; stop-color:#DEB956"/>
   <stop offset="0.14902" style="stop-opacity:1; stop-color:#D8B150"/>
   <stop offset="0.611765" style="stop-opacity:1; stop-color:#FAE27B"/>
   <stop offset="0.721569" style="stop-opacity:1; stop-color:#FDF3AB"/>
   <stop offset="0.839216" style="stop-opacity:1; stop-color:#FAE27B"/>
   <stop offset="1" style="stop-opacity:1; stop-color:#F1D271"/>
  </linearGradient>
 </defs>
 <g id="Слой_x0020_1">
  <metadata id="CorelCorpID_0Corel-Layer"/>
  <path class="fil0" d="M3.59 0c-1.98,0 -3.59,1.61 -3.59,3.59 0,1.98 1.61,3.59 3.59,3.59 1.98,0 3.59,-1.61 3.59,-3.59 0,-1.98 -1.61,-3.59 -3.59,-3.59zm1.68 3.46l-1 -1.01c-0.07,-0.07 -0.19,-0.07 -0.26,0 -0.07,0.07 -0.07,0.19 0,0.26l0.7 0.7 -2.68 0c-0.1,0 -0.18,0.08 -0.18,0.18 0,0.1 0.08,0.18 0.18,0.18l2.68 0 -0.7 0.7c-0.07,0.07 -0.07,0.18 0,0.25 0.07,0.07 0.18,0.07 0.25,0l1.01 -1c0.04,-0.04 0.05,-0.09 0.05,-0.13 0,-0.05 -0.01,-0.09 -0.05,-0.13zm-1.68 3.36c-1.78,0 -3.23,-1.45 -3.23,-3.23 0,-1.78 1.45,-3.23 3.23,-3.23 1.78,0 3.23,1.45 3.23,3.23 0,1.78 -1.45,3.23 -3.23,3.23z"/>
 </g>
</svg>
